<mxfile host="app.diagrams.net" agent="Mozilla/5.0 (Windows NT 10.0; Win64; x64) AppleWebKit/537.36 (KHTML, like Gecko) Chrome/126.0.0.0 YaBrowser/24.7.0.0 Safari/537.36" version="24.7.12">
  <diagram name="Страница — 1" id="bvgcvOZIwQcyGhtMrSSr">
    <mxGraphModel dx="1386" dy="791" grid="1" gridSize="10" guides="1" tooltips="1" connect="1" arrows="1" fold="1" page="1" pageScale="1" pageWidth="827" pageHeight="1169" math="0" shadow="0">
      <root>
        <mxCell id="0" />
        <mxCell id="1" parent="0" />
        <mxCell id="APxh9Ipa-VFfFkhsq8si-7" value="" style="endArrow=classic;html=1;rounded=0;" parent="1" edge="1">
          <mxGeometry width="50" height="50" relative="1" as="geometry">
            <mxPoint x="220" y="320" as="sourcePoint" />
            <mxPoint x="310" y="320" as="targetPoint" />
          </mxGeometry>
        </mxCell>
        <mxCell id="APxh9Ipa-VFfFkhsq8si-8" value="Журнал выдачи фильмов" style="text;html=1;align=center;verticalAlign=middle;whiteSpace=wrap;rounded=0;" parent="1" vertex="1">
          <mxGeometry x="150" y="300" width="60" height="30" as="geometry" />
        </mxCell>
        <mxCell id="APxh9Ipa-VFfFkhsq8si-9" value="" style="endArrow=classic;html=1;rounded=0;" parent="1" edge="1">
          <mxGeometry width="50" height="50" relative="1" as="geometry">
            <mxPoint x="220" y="380" as="sourcePoint" />
            <mxPoint x="309" y="379.5" as="targetPoint" />
          </mxGeometry>
        </mxCell>
        <mxCell id="APxh9Ipa-VFfFkhsq8si-10" value="Список фильмов" style="text;html=1;align=center;verticalAlign=middle;whiteSpace=wrap;rounded=0;" parent="1" vertex="1">
          <mxGeometry x="150" y="365" width="60" height="30" as="geometry" />
        </mxCell>
        <mxCell id="APxh9Ipa-VFfFkhsq8si-11" value="" style="endArrow=classic;html=1;rounded=0;" parent="1" edge="1">
          <mxGeometry width="50" height="50" relative="1" as="geometry">
            <mxPoint x="359.5" y="507.5" as="sourcePoint" />
            <mxPoint x="359.5" y="447.5" as="targetPoint" />
            <Array as="points" />
          </mxGeometry>
        </mxCell>
        <mxCell id="APxh9Ipa-VFfFkhsq8si-12" value="Кассир" style="text;html=1;align=center;verticalAlign=middle;whiteSpace=wrap;rounded=0;" parent="1" vertex="1">
          <mxGeometry x="330" y="510" width="60" height="30" as="geometry" />
        </mxCell>
        <mxCell id="APxh9Ipa-VFfFkhsq8si-13" value="Клиент" style="text;html=1;align=center;verticalAlign=middle;whiteSpace=wrap;rounded=0;" parent="1" vertex="1">
          <mxGeometry x="500" y="510" width="60" height="30" as="geometry" />
        </mxCell>
        <mxCell id="APxh9Ipa-VFfFkhsq8si-14" value="" style="endArrow=classic;html=1;rounded=0;entryX=0.717;entryY=1;entryDx=0;entryDy=0;entryPerimeter=0;" parent="1" edge="1">
          <mxGeometry width="50" height="50" relative="1" as="geometry">
            <mxPoint x="530" y="510" as="sourcePoint" />
            <mxPoint x="530.0000000000001" y="447.5" as="targetPoint" />
          </mxGeometry>
        </mxCell>
        <mxCell id="APxh9Ipa-VFfFkhsq8si-15" value="" style="endArrow=classic;html=1;rounded=0;" parent="1" edge="1">
          <mxGeometry width="50" height="50" relative="1" as="geometry">
            <mxPoint x="220" y="440" as="sourcePoint" />
            <mxPoint x="310" y="440" as="targetPoint" />
          </mxGeometry>
        </mxCell>
        <mxCell id="APxh9Ipa-VFfFkhsq8si-16" value="Расценка фильмов" style="text;html=1;align=center;verticalAlign=middle;whiteSpace=wrap;rounded=0;" parent="1" vertex="1">
          <mxGeometry x="150" y="410" width="60" height="50" as="geometry" />
        </mxCell>
        <mxCell id="APxh9Ipa-VFfFkhsq8si-17" value="" style="endArrow=classic;html=1;rounded=0;" parent="1" edge="1">
          <mxGeometry width="50" height="50" relative="1" as="geometry">
            <mxPoint x="570" y="344.5" as="sourcePoint" />
            <mxPoint x="640" y="344.5" as="targetPoint" />
          </mxGeometry>
        </mxCell>
        <mxCell id="APxh9Ipa-VFfFkhsq8si-18" value="" style="endArrow=classic;html=1;rounded=0;" parent="1" edge="1">
          <mxGeometry width="50" height="50" relative="1" as="geometry">
            <mxPoint x="570" y="424.5" as="sourcePoint" />
            <mxPoint x="640" y="424.5" as="targetPoint" />
          </mxGeometry>
        </mxCell>
        <mxCell id="APxh9Ipa-VFfFkhsq8si-21" value="Чек" style="text;html=1;align=center;verticalAlign=middle;whiteSpace=wrap;rounded=0;" parent="1" vertex="1">
          <mxGeometry x="650" y="410" width="60" height="30" as="geometry" />
        </mxCell>
        <mxCell id="APxh9Ipa-VFfFkhsq8si-23" value="" style="endArrow=classic;html=1;rounded=0;entryX=0.217;entryY=0;entryDx=0;entryDy=0;entryPerimeter=0;" parent="1" edge="1">
          <mxGeometry width="50" height="50" relative="1" as="geometry">
            <mxPoint x="359" y="243" as="sourcePoint" />
            <mxPoint x="358.9400000000001" y="312.5" as="targetPoint" />
          </mxGeometry>
        </mxCell>
        <mxCell id="APxh9Ipa-VFfFkhsq8si-24" value="Трудовой кодекс" style="text;html=1;align=center;verticalAlign=middle;whiteSpace=wrap;rounded=0;" parent="1" vertex="1">
          <mxGeometry x="330" y="200" width="60" height="30" as="geometry" />
        </mxCell>
        <mxCell id="APxh9Ipa-VFfFkhsq8si-26" value="" style="endArrow=classic;html=1;rounded=0;entryX=0.5;entryY=0;entryDx=0;entryDy=0;" parent="1" edge="1">
          <mxGeometry width="50" height="50" relative="1" as="geometry">
            <mxPoint x="520" y="242.5" as="sourcePoint" />
            <mxPoint x="520" y="312.5" as="targetPoint" />
          </mxGeometry>
        </mxCell>
        <mxCell id="APxh9Ipa-VFfFkhsq8si-29" value="Учёт в журнал продажи" style="text;html=1;align=center;verticalAlign=middle;whiteSpace=wrap;rounded=0;" parent="1" vertex="1">
          <mxGeometry x="650" y="330" width="60" height="30" as="geometry" />
        </mxCell>
        <mxCell id="APxh9Ipa-VFfFkhsq8si-31" value="Договор купли-продажи" style="text;html=1;align=center;verticalAlign=middle;whiteSpace=wrap;rounded=0;" parent="1" vertex="1">
          <mxGeometry x="490" y="200" width="60" height="30" as="geometry" />
        </mxCell>
        <mxCell id="mUeZJK6NlyAiFziqiSg1-1" value="" style="rounded=0;whiteSpace=wrap;html=1;" vertex="1" parent="1">
          <mxGeometry x="313.5" y="312.5" width="261" height="135" as="geometry" />
        </mxCell>
        <mxCell id="mUeZJK6NlyAiFziqiSg1-5" value="Продажа фильмов" style="text;html=1;align=center;verticalAlign=middle;whiteSpace=wrap;rounded=0;" vertex="1" parent="1">
          <mxGeometry x="351" y="365" width="186" height="30" as="geometry" />
        </mxCell>
      </root>
    </mxGraphModel>
  </diagram>
</mxfile>
